# xmcd
# Track frame offsets:
# 150
# 12197
# 27452
# 43887
# 57020
# 68225
# 84375
# 97617
# 111377
# 126180
#
# Disc length: 1858 seconds
# Revision: 0
# Processed by: cddbd v1.4PL0 Copyright (c) Steve Scherf et al.
# Submitted via: VisiTrax 2.9.5.180 - For more info visit www.synapsa.com
#
DISCID=7c07400a
DTITLE=C B Wilson - Loving a lifetime
DYEAR=1999
DGENRE=
TTITLE0=Mercy, mercy, mercy
TTITLE1=I'd just as soon die
TTITLE2=What we've shared in the dark
TTITLE3=Ashes and memory
TTITLE4=We drank the sofa last night
TTITLE5=Too much time alone
TTITLE6=Hearts across Georgia
TTITLE7=Happy anniversary darling
TTITLE8=Don't send me no angels
TTITLE9=I'm gonna get a whippin' (when I get home)
EXTD=
EXTT0=
EXTT1=
EXTT2=
EXTT3=
EXTT4=
EXTT5=
EXTT6=
EXTT7=
EXTT8=
EXTT9=
PLAYORDER=
